<svg width="500" height="351" viewBox="0 0 500 351" fill="none" xmlns="http://www.w3.org/2000/svg">
<path d="M489.829 55.0598C486.983 44.4978 481.422 34.8655 473.699 27.1218C465.976 19.378 456.361 13.7928 445.81 10.9221C406.687 0.175136 250.173 0.00018986 250.173 0.00018986C250.173 0.00018986 93.6838 -0.174766 54.5365 10.0974C43.992 13.1002 34.3962 18.7644 26.6703 26.5461C18.9444 34.3279 13.3477 43.9659 10.4177 54.535C0.0999705 93.674 3.66027e-05 174.851 3.66027e-05 174.851C3.66027e-05 174.851 -0.0998923 256.428 10.1429 295.168C15.8888 316.587 32.7519 333.507 54.1867 339.28C93.7088 350.027 249.798 350.202 249.798 350.202C249.798 350.202 406.313 350.377 445.435 340.13C455.99 337.264 465.614 331.692 473.356 323.964C481.099 316.236 486.69 306.62 489.579 296.067C499.921 256.953 499.996 175.801 499.996 175.801C499.996 175.801 500.496 94.1989 489.829 55.0598ZM200.108 250.055L200.233 100.097L330.316 175.201L200.108 250.055Z" fill="white"/>
</svg>
