<svg width="500" height="353" viewBox="0 0 500 353" fill="none" xmlns="http://www.w3.org/2000/svg">
<path d="M55.2616 0H444.738C481.482 0 500 17.3427 500 52.6161V300.118C500 335.097 481.482 352.734 444.738 352.734H55.2616C18.5185 352.734 0 335.097 0 300.118V52.6161C0 17.3427 18.5185 0 55.2616 0ZM249.853 252.792L447.972 90.241C455.026 84.3621 460.611 70.8407 451.793 58.7889C443.269 46.7372 427.69 46.4433 417.402 53.7919L249.853 167.255L82.5985 53.7919C72.3104 46.4433 56.7313 46.7372 48.2069 58.7889C39.3886 70.8407 44.9735 84.3621 52.0282 90.241L249.853 252.792Z" fill="white"/>
</svg>
