<svg width="500" height="500" viewBox="0 0 500 500" fill="none" xmlns="http://www.w3.org/2000/svg">
<path d="M250 0C111.942 0 0 111.942 0 250C0 388.058 111.942 500 250 500C388.058 500 500 388.058 500 250C500 111.942 388.058 0 250 0ZM343.192 353.571C320.536 374.442 289.621 386.719 252.734 386.719C199.33 386.719 153.125 356.083 130.636 311.44C121.373 292.969 116.071 272.098 116.071 250C116.071 227.902 121.373 207.031 130.636 188.56C153.125 143.862 199.33 113.225 252.734 113.225C289.565 113.225 320.48 126.786 344.196 148.828L305.022 188.058C290.848 174.498 272.824 167.634 252.79 167.634C217.188 167.634 187.054 191.685 176.283 223.996C173.549 232.199 171.987 240.96 171.987 250C171.987 259.04 173.549 267.801 176.283 276.004C187.054 308.315 217.188 332.366 252.734 332.366C271.15 332.366 286.775 327.511 298.996 319.308C313.504 309.598 323.103 295.145 326.284 278.013H252.734V225.112H381.473C383.092 234.096 383.929 243.415 383.929 253.069C383.929 294.754 369.029 329.743 343.192 353.571Z" fill="white"/>
</svg>
